<svg id="Capa_1" enable-background="new 0 0 512 512" height="512" viewBox="0 0 512 512" width="512" xmlns="http://www.w3.org/2000/svg"><path d="m480.886 48.505h-449.771c-17.157 0-31.115 13.958-31.115 31.115v74.38c0 9.675 15 9.675 15 0v-17h482v238h-75c-9.675 0-9.675 15 0 15h75v42.38c0 8.886-7.229 16.115-16.114 16.115h-449.771c-8.886 0-16.115-7.229-16.115-16.115v-42.38h363c9.675 0 9.675-15 0-15h-363v-179c0-9.675-15-9.675-15 0v236.38c0 17.157 13.958 31.115 31.115 31.115h449.771c17.156 0 31.114-13.958 31.114-31.115v-352.76c0-17.157-13.958-31.115-31.114-31.115zm-465.886 73.495v-42.38c0-8.886 7.229-16.115 16.115-16.115h449.771c8.886 0 16.114 7.229 16.114 16.115v42.38z"/><path d="m51.611 77.5c-4.142 0-7.5 3.357-7.5 7.5v17c0 9.675 15 9.675 15 0v-17c0-4.143-3.358-7.5-7.5-7.5z"/><path d="m92.489 77.5c-4.142 0-7.5 3.357-7.5 7.5v17c0 9.675 15 9.675 15 0v-17c0-4.143-3.358-7.5-7.5-7.5z"/><path d="m133.367 77.5c-4.142 0-7.5 3.357-7.5 7.5v17c0 9.675 15 9.675 15 0v-17c0-4.143-3.358-7.5-7.5-7.5z"/><path d="m174.245 77.5c-4.142 0-7.5 3.357-7.5 7.5v17c0 9.675 15 9.675 15 0v-17c0-4.143-3.358-7.5-7.5-7.5z"/><path d="m215.122 77.5c-4.142 0-7.5 3.357-7.5 7.5v17c0 9.675 15 9.675 15 0v-17c0-4.143-3.358-7.5-7.5-7.5z"/><path d="m256 77.5c-4.142 0-7.5 3.357-7.5 7.5v17c0 9.674 15 9.675 15 0v-17c0-4.143-3.357-7.5-7.5-7.5z"/><path d="m296.878 77.5c-4.143 0-7.5 3.357-7.5 7.5v17c0 9.675 15 9.675 15 0v-17c0-4.143-3.357-7.5-7.5-7.5z"/><path d="m337.756 77.5c-4.143 0-7.5 3.357-7.5 7.5v17c0 9.675 15 9.675 15 0v-17c0-4.143-3.358-7.5-7.5-7.5z"/><path d="m378.634 77.5c-4.143 0-7.5 3.357-7.5 7.5v17c0 9.675 15 9.675 15 0v-17c0-4.143-3.358-7.5-7.5-7.5z"/><path d="m419.511 77.5c-4.143 0-7.5 3.357-7.5 7.5v17c0 9.675 15 9.675 15 0v-17c0-4.143-3.358-7.5-7.5-7.5z"/><path d="m460.389 77.5c-4.143 0-7.5 3.357-7.5 7.5v17c0 9.675 15 9.675 15 0v-17c0-4.143-3.358-7.5-7.5-7.5z"/><path d="m44.111 410v17c0 9.674 15 9.674 15 0v-17c0-9.674-15-9.674-15 0z"/><path d="m84.989 410v17c0 9.674 15 9.674 15 0v-17c0-9.674-15-9.674-15 0z"/><path d="m125.867 410v17c0 9.674 15 9.674 15 0v-17c0-9.674-15-9.674-15 0z"/><path d="m166.745 410v17c0 9.674 15 9.674 15 0v-17c0-9.674-15-9.674-15 0z"/><path d="m207.622 410v17c0 9.674 15 9.674 15 0v-17c0-9.674-15-9.674-15 0z"/><path d="m248.5 410v17c0 9.674 15 9.675 15 0v-17c0-9.675-15-9.674-15 0z"/><path d="m289.378 410v17c0 9.675 15 9.675 15 0v-17c0-9.675-15-9.675-15 0z"/><path d="m330.256 410v17c0 9.675 15 9.675 15 0v-17c0-9.675-15-9.675-15 0z"/><path d="m371.134 410v17c0 9.675 15 9.675 15 0v-17c0-9.675-15-9.675-15 0z"/><path d="m427.011 427v-17c0-9.675-15-9.675-15 0v17c0 9.675 15 9.675 15 0z"/><path d="m467.889 427v-17c0-9.675-15-9.675-15 0v17c0 9.675 15 9.675 15 0z"/><path d="m220.916 182.531c-3.04-1.033-6.401-.019-8.359 2.526l-73.434 95.434c-3.716 4.828-.009 12.074 5.944 12.074h65.933v29.803c0 4.143 3.358 7.5 7.5 7.5s7.5-3.357 7.5-7.5v-29.803h18.5c9.674 0 9.674-15 0-15h-18.5v-87.934c0-3.21-2.044-6.066-5.084-7.1zm-9.916 95.034h-50.7l50.7-65.889z"/><path d="m279.5 182.132c-4.143 0-7.5 3.357-7.5 7.5v132.736c0 9.675 15 9.675 15 0v-34.75l15.036-19.541 59.595 59.595c6.785 6.781 17.54-3.673 10.607-10.607l-60.977-60.977 47.617-61.882c5.898-7.668-5.987-16.816-11.889-9.148l-59.989 77.961v-73.387c0-4.143-3.357-7.5-7.5-7.5z"/></svg>