<?xml version="1.0" encoding="iso-8859-1"?>
<!-- Generator: Adobe Illustrator 19.0.0, SVG Export Plug-In . SVG Version: 6.00 Build 0)  -->
<svg version="1.1" id="Capa_1" xmlns="http://www.w3.org/2000/svg" xmlns:xlink="http://www.w3.org/1999/xlink" x="0px" y="0px"
	 viewBox="0 0 480 480" style="enable-background:new 0 0 480 480;" xml:space="preserve">
<g>
	<g>
		<path d="M407.648,40H72c-17.673,0-32,14.327-32,32v216c0,17.673,14.327,32,32,32h335.648c17.673,0,32-14.327,32-32V72
			C439.648,54.327,425.321,40,407.648,40z M423.648,288c0,8.837-7.163,16-16,16H72c-8.837,0-16-7.163-16-16V72
			c0-8.837,7.163-16,16-16h335.648c8.837,0,16,7.163,16,16V288z"/>
	</g>
</g>
<g>
	<g>
		<path d="M416,0H64C28.67,0.04,0.04,28.67,0,64v256c0.04,35.33,28.67,63.96,64,64h117.392l-11.432,40H116
			c-15.464,0-28,12.536-28,28c0,15.464,12.536,28,28,28h248c15.464,0,28-12.536,28-28c0-15.464-12.536-28-28-28h-53.96l-11.432-40
			H416c35.33-0.04,63.96-28.67,64-64V64C479.96,28.67,451.33,0.04,416,0z M364,440c6.627,0,12,5.373,12,12c0,6.627-5.373,12-12,12
			H116c-6.627,0-12-5.373-12-12c0-6.627,5.373-12,12-12H364z M186.608,424l11.432-40h83.92l11.432,40H186.608z M464,320
			c-0.026,26.499-21.501,47.974-48,48H64c-26.499-0.026-47.974-21.501-48-48V64c0.026-26.499,21.501-47.974,48-48h352
			c26.499,0.026,47.974,21.501,48,48V320z"/>
	</g>
</g>
<g>
	<g>
		<rect x="232" y="336" width="16" height="16"/>
	</g>
</g>
<g>
	<g>
		<path d="M96.144,80C87.232,80.009,80.009,87.232,80,96.144V144h16l0.144-48H216V80H96.144z"/>
	</g>
</g>
<g>
	<g>
		<rect x="232" y="80" width="16" height="16"/>
	</g>
</g>
<g>
</g>
<g>
</g>
<g>
</g>
<g>
</g>
<g>
</g>
<g>
</g>
<g>
</g>
<g>
</g>
<g>
</g>
<g>
</g>
<g>
</g>
<g>
</g>
<g>
</g>
<g>
</g>
<g>
</g>
</svg>
