<svg id="Layer_2" height="512" viewBox="0 0 128 128" width="512" xmlns="http://www.w3.org/2000/svg" data-name="Layer 2"><g fill="rgb(0,0,0)"><path d="m126.25 87.75h-7.622v-60a6.758 6.758 0 0 0 -6.75-6.75h-95.75a6.758 6.758 0 0 0 -6.75 6.75v60h-7.628a1.75 1.75 0 0 0 -1.75 1.75v7.75a9.761 9.761 0 0 0 9.75 9.75h108.5a9.761 9.761 0 0 0 9.75-9.75v-7.75a1.75 1.75 0 0 0 -1.75-1.75zm-113.372-60a3.254 3.254 0 0 1 3.25-3.25h95.75a3.254 3.254 0 0 1 3.25 3.25v60h-102.25zm30.622 63.5h41v1.125a3.254 3.254 0 0 1 -3.25 3.25h-34.5a3.254 3.254 0 0 1 -3.25-3.25zm81 6a6.257 6.257 0 0 1 -6.25 6.25h-108.5a6.257 6.257 0 0 1 -6.25-6.25v-6h36.5v1.125a6.758 6.758 0 0 0 6.75 6.75h34.5a6.758 6.758 0 0 0 6.75-6.75v-1.125h36.5z"/><path d="m108.628 79.5v-46.75a1.75 1.75 0 0 0 -1.75-1.75h-85.75a1.75 1.75 0 0 0 -1.75 1.75v46.75a1.75 1.75 0 0 0 1.75 1.75h85.75a1.75 1.75 0 0 0 1.75-1.75zm-3.5-1.75h-82.25v-43.25h82.25z"/><path d="m53.825 66.3a1.749 1.749 0 0 0 2.475 0l17.875-17.875a1.75 1.75 0 0 0 -2.475-2.475l-17.875 17.875a1.751 1.751 0 0 0 0 2.475z"/><path d="m67.793 62.343a1.752 1.752 0 0 0 2.475 0l9.961-9.961a1.75 1.75 0 1 0 -2.475-2.475l-9.961 9.961a1.751 1.751 0 0 0 0 2.475z"/><path d="m49.015 62.855a1.742 1.742 0 0 0 1.237-.512l9.96-9.961a1.75 1.75 0 1 0 -2.474-2.475l-9.961 9.961a1.75 1.75 0 0 0 1.238 2.987z"/></g></svg>