<?xml version="1.0" encoding="iso-8859-1"?>
<!-- Generator: Adobe Illustrator 16.0.0, SVG Export Plug-In . SVG Version: 6.00 Build 0)  -->
<!DOCTYPE svg PUBLIC "-//W3C//DTD SVG 1.1//EN" "http://www.w3.org/Graphics/SVG/1.1/DTD/svg11.dtd">
<svg version="1.1" id="Capa_1" xmlns="http://www.w3.org/2000/svg" xmlns:xlink="http://www.w3.org/1999/xlink" x="0px" y="0px"
	 width="518.939px" height="518.939px" viewBox="0 0 518.939 518.939" style="enable-background:new 0 0 518.939 518.939;"
	 xml:space="preserve">
<g>
	<g>
		<path d="M486.002,28.914l-181.33,181.329V42.555c0-25.729-14.75-31.837-32.938-13.642L93.152,207.495V37.072
			c0-10.288-8.342-18.63-18.629-18.63H18.629C8.341,18.442,0,26.784,0,37.072v444.795c0,10.288,8.341,18.629,18.629,18.629h55.894
			c10.288,0,18.629-8.341,18.629-18.629V311.449l178.582,178.582c18.188,18.188,32.938,12.081,32.938-13.642V308.702l181.33,181.329
			c18.188,18.188,32.938,12.081,32.938-13.642V42.555C518.939,16.833,504.189,10.725,486.002,28.914z"/>
	</g>
</g>
<g>
</g>
<g>
</g>
<g>
</g>
<g>
</g>
<g>
</g>
<g>
</g>
<g>
</g>
<g>
</g>
<g>
</g>
<g>
</g>
<g>
</g>
<g>
</g>
<g>
</g>
<g>
</g>
<g>
</g>
</svg>
