<?xml version="1.0" encoding="iso-8859-1"?>
<!-- Generator: Adobe Illustrator 16.0.0, SVG Export Plug-In . SVG Version: 6.00 Build 0)  -->
<!DOCTYPE svg PUBLIC "-//W3C//DTD SVG 1.1//EN" "http://www.w3.org/Graphics/SVG/1.1/DTD/svg11.dtd">
<svg version="1.1" id="Capa_1" xmlns="http://www.w3.org/2000/svg" xmlns:xlink="http://www.w3.org/1999/xlink" x="0px" y="0px"
	 width="518.939px" height="518.94px" viewBox="0 0 518.939 518.94" style="enable-background:new 0 0 518.939 518.94;"
	 xml:space="preserve">
<g>
	<g>
		<path d="M500.31,18.443h-55.894c-10.288,0-18.629,8.341-18.629,18.629v170.423L247.205,28.914
			c-18.188-18.188-32.938-12.081-32.938,13.642v167.688L32.938,28.914C14.75,10.726,0,16.833,0,42.556v433.829
			c0,25.722,14.75,31.83,32.938,13.642l181.33-181.33v167.688c0,25.722,14.749,31.83,32.938,13.642l178.582-178.582v170.424
			c0,10.287,8.341,18.629,18.629,18.629h55.894c10.288,0,18.63-8.342,18.63-18.629V37.072
			C518.939,26.784,510.598,18.443,500.31,18.443z"/>
	</g>
</g>
<g>
</g>
<g>
</g>
<g>
</g>
<g>
</g>
<g>
</g>
<g>
</g>
<g>
</g>
<g>
</g>
<g>
</g>
<g>
</g>
<g>
</g>
<g>
</g>
<g>
</g>
<g>
</g>
<g>
</g>
</svg>
