<svg id="Capa_1" enable-background="new 0 0 512 512" height="512" viewBox="0 0 512 512" width="512" xmlns="http://www.w3.org/2000/svg"><g><path d="m248.5 38.5h15v15h-15z"/><path d="m497 428.5v-330h-160.144l-15.001-60h-29.11c-3.484-17.096-18.635-30.001-36.745-30.001s-33.261 12.905-36.745 30.001h-29.111l-15 60h-160.144v59.999h15v-44.999h218.5v285.001h-19.25v-72.904l-61.116-20.373 16.116-16.116v-70.606c0-12.406-10.093-22.5-22.5-22.5h-67.5v93.106l16.116 16.116-61.116 20.373v72.904h-19.25v-225.002h-15v255.001h-15v52.501c0 12.406 10.094 22.5 22.5 22.5h399.501v-15h-399.501c-4.136 0-7.5-3.364-7.5-7.5v-37.501h182.644l7.499 30h101.712l7.501-30h182.644v37.501c0 4.136-3.364 7.5-7.5 7.5h-52.499v15h52.499c12.406 0 22.5-10.094 22.5-22.5v-52.501zm-241-405.001c12.406 0 22.5 10.094 22.5 22.501 0 12.406-10.094 22.5-22.5 22.5-12.407 0-22.5-10.094-22.5-22.5 0-12.407 10.093-22.501 22.5-22.501zm-54.144 30.001h17.399c3.484 17.096 18.635 30 36.745 30s33.261-12.904 36.745-30h17.399l11.249 45h-130.787zm61.644 60h218.5v285.001h-19.251v-72.904l-62.756-20.92 17.757-23.676v-62.5c0-9.778-6.27-18.119-15-21.215v-8.785c0-12.406-10.093-22.499-22.499-22.499h-15.001c-12.406 0-22.5 10.093-22.5 22.499v8.785c-8.73 3.096-15 11.437-15 21.215v62.5l17.757 23.676-62.756 20.92v72.904h-19.251zm146.75 257.229v27.771h-75v-27.771h-15v27.771h-22.499v-62.094l24.839-8.28 50.16 38.585 50.161-38.585 24.838 8.28v62.094h-22.499v-27.771zm-15-159.728c4.136 0 7.5 3.364 7.5 7.5v7.5h-33.124l-26.876 16.566v-24.066c0-4.136 3.364-7.5 7.5-7.5zm-37.5-15v-7.5c0-4.135 3.364-7.499 7.5-7.499h15.001c4.135 0 7.499 3.364 7.499 7.499v7.5zm-15 64.187 31.128-19.188h28.872v35l-18.75 25h-22.499l-18.751-25zm16.219 55.813h27.563l19.215 6.405-32.997 25.383-32.997-25.383zm-197.219-105c4.136 0 7.5 3.364 7.5 7.5v7.5h-60v-15zm-52.5 30h60v41.894l-18.107 18.106h-23.787l-18.106-18.106zm-45 95.406 61.217-20.406h27.565l61.217 20.406v62.094h-22.5v-27.771h-15v27.771h-75v-27.771h-15v27.771h-22.5v-62.094zm230.895 122.093h-78.289l-3.75-15h35.394v-15h-218.5v-14.999h452v14.999h-218.5v15h35.394z"/><path d="m452 158.499h15v45h-15z"/><path d="m452 128.499h15v15h-15z"/><path d="m30 458.5h15v15h-15z"/></g></svg>